<svg width="1920" height="459" viewBox="0 0 1920 459" fill="none" xmlns="http://www.w3.org/2000/svg">
<rect width="1920" height="459" fill="#D9D9D9"/>
<g opacity="0.5" clip-path="url(#clip0_0_1)">
<path d="M1660.21 295.724C1659.38 294.496 1659.06 292.991 1659.33 291.533C1659.59 290.074 1660.42 288.778 1661.63 287.924C1664.23 286.094 1667.88 286.851 1669.66 289.48L1671.66 292.438C1671.95 292.864 1672.13 293.355 1672.19 293.867C1672.24 294.379 1672.17 294.897 1671.98 295.376L1670.68 298.626C1670.49 299.105 1670.42 299.623 1670.48 300.135C1670.53 300.647 1670.71 301.138 1671 301.564L1673.24 304.866" stroke="#390700" stroke-width="7.07" stroke-miterlimit="10"/>
<path d="M1672.09 318.676C1669.45 314.771 1668.03 308.902 1673.35 305.297C1679.16 301.366 1683.6 305.189 1686.23 309.086" stroke="#390700" stroke-width="7.07" stroke-miterlimit="10"/>
<path d="M1651.24 342.209C1651.35 342.135 1651.45 342.053 1651.54 341.963L1674.03 319.877L1672.41 317.453L1671.74 316.238L1648.57 338.945C1648.19 339.314 1647.97 339.811 1647.94 340.339C1647.91 340.866 1648.08 341.386 1648.41 341.795C1648.75 342.204 1649.22 342.473 1649.75 342.548C1650.27 342.624 1650.8 342.5 1651.24 342.202L1651.24 342.209Z" fill="#C78E7B"/>
<path d="M1715.65 297.946C1715.54 298.019 1715.43 298.082 1715.31 298.136L1686.63 311.22L1684.96 308.824L1684.09 307.75L1713.56 294.279C1714.04 294.058 1714.59 294.025 1715.09 294.186C1715.6 294.347 1716.02 294.691 1716.28 295.15C1716.54 295.609 1716.62 296.15 1716.51 296.665C1716.39 297.18 1716.08 297.633 1715.65 297.934L1715.65 297.946Z" fill="#C78E7B"/>
</g>
<g opacity="0.5" clip-path="url(#clip1_0_1)">
<path d="M1290.21 118.724C1289.38 117.496 1289.06 115.991 1289.33 114.533C1289.59 113.074 1290.42 111.778 1291.63 110.924C1294.23 109.094 1297.88 109.851 1299.66 112.48L1301.66 115.438C1301.95 115.864 1302.13 116.355 1302.19 116.867C1302.24 117.379 1302.17 117.897 1301.98 118.376L1300.68 121.626C1300.49 122.105 1300.42 122.623 1300.48 123.135C1300.53 123.647 1300.71 124.138 1301 124.564L1303.24 127.866" stroke="#390700" stroke-width="7.07" stroke-miterlimit="10"/>
<path d="M1302.09 141.676C1299.45 137.771 1298.03 131.901 1303.35 128.297C1309.16 124.366 1313.6 128.189 1316.23 132.086" stroke="#390700" stroke-width="7.07" stroke-miterlimit="10"/>
<path d="M1281.24 165.209C1281.35 165.135 1281.45 165.053 1281.54 164.962L1304.03 142.877L1302.41 140.453L1301.74 139.238L1278.57 161.945C1278.19 162.314 1277.97 162.811 1277.94 163.339C1277.91 163.866 1278.08 164.386 1278.41 164.795C1278.75 165.204 1279.22 165.473 1279.75 165.548C1280.27 165.624 1280.8 165.5 1281.24 165.202L1281.24 165.209Z" fill="#C78E7B"/>
<path d="M1345.65 120.946C1345.54 121.019 1345.43 121.082 1345.31 121.136L1316.63 134.219L1314.96 131.824L1314.09 130.75L1343.56 117.279C1344.04 117.058 1344.59 117.024 1345.09 117.186C1345.6 117.347 1346.02 117.691 1346.28 118.15C1346.54 118.609 1346.62 119.149 1346.51 119.665C1346.39 120.18 1346.08 120.633 1345.65 120.934L1345.65 120.946Z" fill="#C78E7B"/>
</g>
<g opacity="0.5" clip-path="url(#clip2_0_1)">
<path d="M33.2103 335.724C32.3786 334.496 32.0619 332.991 32.3281 331.533C32.5944 330.074 33.4223 328.778 34.634 327.924C37.2285 326.094 40.8788 326.851 42.6579 329.48L44.6594 332.438C44.9489 332.864 45.1294 333.355 45.1852 333.867C45.2409 334.379 45.1703 334.897 44.9794 335.376L43.6824 338.626C43.4915 339.105 43.4209 339.623 43.4766 340.135C43.5324 340.647 43.7129 341.138 44.0023 341.564L46.2379 344.866" stroke="#390700" stroke-width="7.07" stroke-miterlimit="10"/>
<path d="M45.093 358.676C42.4465 354.771 41.0305 348.902 46.352 345.297C52.156 341.366 56.5962 345.189 59.2349 349.086" stroke="#390700" stroke-width="7.07" stroke-miterlimit="10"/>
<path d="M24.2417 382.209C24.3486 382.135 24.4488 382.053 24.5414 381.963L47.0345 359.877L45.4056 357.453L44.7406 356.238L21.5732 378.945C21.1946 379.314 20.968 379.811 20.9382 380.339C20.9084 380.866 21.0774 381.386 21.412 381.795C21.7466 382.204 22.2224 382.473 22.7455 382.548C23.2686 382.624 23.8009 382.5 24.2374 382.202L24.2417 382.209Z" fill="#C78E7B"/>
<path d="M88.6457 337.946C88.5398 338.019 88.4277 338.082 88.3107 338.136L59.6307 351.22L57.96 348.824L57.0918 347.75L86.5636 334.279C87.0436 334.058 87.589 334.025 88.0923 334.186C88.5956 334.347 89.0201 334.691 89.2821 335.15C89.5441 335.609 89.6245 336.15 89.5074 336.665C89.3904 337.18 89.0843 337.633 88.6498 337.934L88.6457 337.946Z" fill="#C78E7B"/>
</g>
<defs>
<clipPath id="clip0_0_1">
<rect width="82.3413" height="39.7487" fill="white" transform="translate(1627 310.638) rotate(-34.4994)"/>
</clipPath>
<clipPath id="clip1_0_1">
<rect width="82.3413" height="39.7487" fill="white" transform="translate(1257 133.638) rotate(-34.4994)"/>
</clipPath>
<clipPath id="clip2_0_1">
<rect width="82.3413" height="39.7487" fill="white" transform="translate(0 350.638) rotate(-34.4994)"/>
</clipPath>
</defs>
</svg>
